<svg xmlns="http://www.w3.org/2000/svg" width="46" height="42" viewBox="0 0 46 42"><g><g><path fill="#fff" d="M10.19 31.35a5.491 5.491 0 0 0 4.2 1.623v1.5a6.96 6.96 0 0 1-5.325-2.112c-2.662-2.847-2.3-7.504-2.282-7.702l1.522.124c-.006.042-.32 4.21 1.885 6.567zm18.653-9.63h9.888v1.5h-9.888zm-3.043 0h1.521v1.5H25.8zM-.063 8.969v-6c0-.415.341-.75.761-.75 4.351.005 8.32 2.451 10.233 6.305 1.26-5.018 5.823-8.547 11.066-8.556h1.521c.42 0 .76.336.76.75v8.251c-.004 4.03-2.194 7.75-5.74 9.752h3.144l11.155-11c.4-.49 3.177-3.884 3.835-4.533.08-.085.164-.167.25-.246 1.977-1.814 5.072-1.704 6.911.246a4.783 4.783 0 0 1 0 7.061c-.656.649-4.085 3.377-4.592 3.78l-4.759 4.692h7.292v9.752c-.007 4.677-3.642 8.57-8.367 8.964v4.538H12.108v-4.538c-4.726-.394-8.36-4.287-8.367-8.964V18.72h1.938C2.132 16.718-.058 12.998-.063 8.968zm31.948 28.505H13.63v3h1.522v-1.498h1.521v1.499h1.521v-1.5h1.522v1.5h12.17zm2.543-29.308l4.357 4.296c1.294-1.033 3.526-2.832 3.973-3.273a3.311 3.311 0 0 0 0-4.94 3.451 3.451 0 0 0-5.01 0c-.447.44-2.272 2.64-3.32 3.917zM32.2 10.47l4.25 4.19 1.206-1.19-4.25-4.19zm-3.803 3.75l4.249 4.19 2.728-2.69-4.25-4.19zm-4.564 4.501h6.977l-3.489-3.44zm-18.57 1.5v8.252c.004 4.141 3.406 7.497 7.606 7.502h19.777c4.2-.005 7.602-3.36 7.607-7.502v-8.251zm6.845-3.778c1.922-1.588 5.567-5.164 6.09-9.807l1.512.166c-.702 6.232-6.176 10.533-7.602 11.557v.362h.76c5.46-.006 9.883-4.368 9.89-9.752V1.467h-.761c-5.46.006-9.883 4.369-9.89 9.752zM1.458 8.968c.007 5.093 3.98 9.326 9.129 9.724v-.286a16.687 16.687 0 0 1-6.798-8.425l1.425-.526a15.643 15.643 0 0 0 5.373 7.144v-3.13c-.006-5.092-3.98-9.325-9.128-9.723zm38.257-2.78l1.521-1.5 1.076 1.06-1.521 1.5zm-2.282 2.25l1.521-1.5 1.076 1.06-1.521 1.5z"/></g></g></svg>
