<svg class="icon" style="width: 41px; height: 41px;vertical-align: middle;fill: currentColor;overflow: hidden;" viewBox="0 0 1024 1024" version="1.1" xmlns="http://www.w3.org/2000/svg"><path d="M1.703827 0h1022.296173v1022.296173H1.703827z" fill="#e51a68" /><path d="M508.577012 135.484912c-196.159894 0-355.205324 159.082915-355.205325 355.297331 0 196.272346 159.045431 355.29222 355.205325 355.29222 196.173524 0 355.200213-159.019874 355.200213-355.29222 0-196.217824-159.013058-355.297331-355.200213-355.297331z m225.380525 163.686655c39.97178 46.931913 65.379248 106.548819 69.722303 171.912733-63.946329-3.40595-140.524832-3.342908-202.089211 2.468845-7.716632-19.660459-15.722915-38.922223-24.332353-57.383188 70.995062-30.701258 125.606123-71.054696 156.699261-116.99839z m-225.380525-104.419035c71.797564 0 137.599361 25.572739 188.845364 68.117298-32.173364 40.752133-82.548712 76.126988-145.51023 102.841291-34.429231-63.573191-73.951201-118.356339-116.136252-161.584133 23.344133-5.941245 47.62026-9.374456 72.801118-9.374456z m-133.91228 32.255149c42.749018 42.479814 82.906516 96.804632 118.005351 160.159733-66.851354 20.34199-143.452007 32.091581-225.102802 32.091581-15.46223 0-30.651847-0.581005-45.720492-1.453364 21.224572-83.388699 77.74392-152.584519 152.817943-190.79795zM213.080599 476.647295c16.830403 0.742869 33.844819 1.049557 51.128439 0.868951 93.172073-1.180752 180.079175-15.653058 254.565378-39.574788a942.788792 942.788792 0 0 1 19.996113 45.016812c-10.168439 2.349577-19.20213 4.949617-26.46384 7.97391-101.974043 42.733684-182.207255 111.774456-225.731514 195.261976-45.923248-52.195035-74.005724-120.429897-74.005724-195.410209 0.001704-4.738343 0.29817-9.437498 0.511148-14.136652z m295.496413 310.222589c-68.430802 0-131.256013-23.407175-181.397937-62.431628 39.382256-78.045498 109.675341-142.603501 198.352719-182.793371 8.41009-3.838722 19.457704-6.999321 32.180179-9.778263 10.490463 29.316047 20.054043 59.671428 28.256267 91.028659 12.853671 49.100885 21.820912 97.450383 27.380499 144.547568-32.592506 12.40386-67.81572 19.427035-104.771727 19.427035z m159.970609-47.190896c-5.568106-47.548699-14.627354-96.370156-27.593478-145.970263-6.283714-24.051221-13.526682-47.364686-21.219461-70.178928 58.037458-4.760493 127.6882-4.029551 182.92627 0-10.035541 90.773085-61.010636 168.992373-134.113331 216.149191z" fill="#FFFFFF" /></svg>
