<?xml version="1.0" standalone="no"?>
<!DOCTYPE svg PUBLIC "-//W3C//DTD SVG 20010904//EN"
 "http://www.w3.org/TR/2001/REC-SVG-20010904/DTD/svg10.dtd">
<svg version="1.0" xmlns="http://www.w3.org/2000/svg"
 width="225.000000pt" height="225.000000pt" viewBox="0 0 225.000000 225.000000"
 preserveAspectRatio="xMidYMid meet">
<metadata>
Created by potrace 1.11, written by Peter Selinger 2001-2013
</metadata>
<g transform="translate(0.000000,225.000000) scale(0.100000,-0.100000)"
fill="#000000" stroke="none">
<path d="M1375 1441 c-78 -20 -151 -77 -188 -146 -32 -60 -31 -202 1 -265 32
-61 58 -87 117 -118 97 -51 267 -31 342 40 21 19 23 31 23 119 0 122 -6 129
-123 129 -90 0 -117 -10 -117 -45 0 -32 27 -45 94 -45 l56 0 0 -50 c0 -50 -1
-51 -42 -70 -81 -37 -176 -22 -230 36 -35 38 -48 74 -48 137 1 67 28 127 76
163 33 25 46 29 103 29 51 0 76 -6 107 -24 53 -30 88 -26 92 12 4 35 -12 55
-63 78 -47 21 -156 32 -200 20z"/>
<path d="M1840 1299 c-138 -55 -181 -240 -80 -346 28 -30 35 -29 60 12 l22 35
-21 26 c-23 29 -28 88 -10 126 17 37 59 62 109 64 41 1 47 5 65 38 17 32 18
38 5 46 -19 12 -118 12 -150 -1z"/>
<path d="M2015 1227 c-17 -32 -17 -34 4 -67 25 -42 26 -71 5 -116 -20 -42 -59
-64 -113 -64 -35 0 -43 -4 -56 -30 -24 -46 -19 -58 24 -65 100 -17 188 30 236
124 26 52 18 156 -18 210 -33 50 -58 52 -82 8z"/>
</g>
</svg>
