<?xml version="1.0" standalone="no"?>
<!DOCTYPE svg PUBLIC "-//W3C//DTD SVG 20010904//EN"
 "http://www.w3.org/TR/2001/REC-SVG-20010904/DTD/svg10.dtd">
<svg version="1.0" xmlns="http://www.w3.org/2000/svg"
 width="158.000000pt" height="158.000000pt" viewBox="0 0 158.000000 158.000000"
 preserveAspectRatio="xMidYMid meet">
<metadata>
Created by potrace 1.11, written by Peter Selinger 2001-2013
</metadata>
<g transform="translate(0.000000,158.000000) scale(0.100000,-0.100000)"
fill="#000000" stroke="none">
<path d="M691 1455 c-23 -14 -53 -25 -65 -25 -37 0 -92 -19 -127 -45 -19 -14
-53 -34 -76 -44 -48 -22 -56 -49 -27 -89 13 -19 13 -26 3 -38 -22 -27 -70 -46
-101 -40 -32 6 -65 -10 -110 -54 -20 -20 -27 -36 -26 -61 0 -19 -4 -44 -11
-57 -17 -32 -5 -64 46 -116 49 -49 129 -82 185 -77 27 2 27 2 -13 -38 -38 -38
-41 -44 -37 -88 2 -32 -3 -61 -15 -86 -23 -47 -16 -95 16 -132 24 -27 65 -36
116 -24 32 7 37 4 77 -39 24 -26 43 -52 44 -58 0 -7 8 -14 18 -18 115 -40 139
-37 196 24 20 22 35 40 32 40 -2 0 4 23 15 50 10 28 16 50 13 50 -4 0 -2 6 2
13 5 6 9 24 8 39 0 16 3 28 7 28 8 0 12 -16 7 -22 -1 -2 9 -14 22 -28 50 -52
85 -95 82 -102 -1 -5 1 -7 6 -7 18 3 33 -2 28 -9 -2 -4 3 -8 12 -9 9 0 38 -5
65 -11 26 -5 47 -6 47 -2 0 4 14 10 31 14 20 4 49 25 79 57 37 39 54 50 69 46
12 -3 19 -2 16 2 -2 5 6 13 19 19 38 17 72 111 46 127 -5 3 -10 13 -10 21 0
20 -45 80 -95 126 -39 37 -55 46 -146 88 l-44 19 85 -6 c47 -3 88 -7 92 -10 4
-2 35 -4 69 -4 79 -1 105 20 95 75 -7 36 -55 95 -105 129 -25 17 -29 41 -18
112 12 80 -42 138 -158 170 -114 32 -109 32 -165 -24 -27 -28 -58 -64 -69 -81
l-18 -30 -6 65 c-4 43 -16 83 -33 114 -41 76 -95 90 -173 46z"/>
</g>
</svg>
