<?xml version="1.0" standalone="no"?>
<!DOCTYPE svg PUBLIC "-//W3C//DTD SVG 20010904//EN"
 "http://www.w3.org/TR/2001/REC-SVG-20010904/DTD/svg10.dtd">
<svg version="1.0" xmlns="http://www.w3.org/2000/svg"
 width="256.000000pt" height="256.000000pt" viewBox="0 0 256.000000 256.000000"
 preserveAspectRatio="xMidYMid meet">
<metadata>
Created by potrace 1.11, written by Peter Selinger 2001-2013
</metadata>
<g transform="translate(0.000000,256.000000) scale(0.100000,-0.100000)"
fill="#000000" stroke="none">
<path d="M978 2547 c-113 -37 -177 -129 -181 -261 -2 -81 -1 -79 -59 -78 -16
0 -28 -5 -29 -11 0 -7 -1 -37 -2 -67 l-2 -55 -220 -1 c-231 -1 -267 -6 -335
-49 -55 -35 -91 -76 -119 -135 -26 -55 -26 -57 -26 -305 0 -241 1 -249 20
-255 20 -5 20 -11 20 -625 0 -674 -1 -664 55 -692 31 -16 2313 -19 2354 -3 14
5 33 21 43 37 17 25 18 68 19 643 1 338 2 620 3 627 0 6 10 15 22 18 20 7 20
12 17 253 -3 242 -3 248 -29 302 -46 96 -135 163 -236 178 -26 4 -136 7 -244
7 l-196 -1 1 59 c1 32 -1 62 -4 66 -3 5 -22 8 -43 7 -20 0 -37 1 -38 4 0 3 -2
37 -4 76 -5 118 -52 196 -145 245 -44 23 -52 24 -325 26 -196 1 -291 -2 -317
-10z m162 -185 c98 -26 209 -23 312 8 73 21 79 22 103 6 30 -20 37 -45 33
-116 l-3 -54 -42 0 -43 0 0 -65 0 -66 -220 0 -220 0 0 66 0 65 -32 -1 c-55 -2
-58 2 -58 72 0 55 4 67 25 89 27 27 26 27 145 -4z"/>
</g>
</svg>
