<svg xmlns="http://www.w3.org/2000/svg" width="30" height="30" viewBox="0 0 30 30"><defs><clipPath id="ok6za"><path fill="#fff" d="M15 0c8.284 0 15 6.715 15 15 0 8.284-6.716 15-15 15-8.284 0-15-6.716-15-15C0 6.715 6.716 0 15 0z"/></clipPath></defs><g><g opacity="-1"><g><path fill="#bbb" d="M15 0c8.284 0 15 6.715 15 15 0 8.284-6.716 15-15 15-8.284 0-15-6.716-15-15C0 6.715 6.716 0 15 0z"/><path fill="none" stroke="#30383b" stroke-linecap="round" stroke-linejoin="round" stroke-miterlimit="20" stroke-width="2" d="M15 0c8.284 0 15 6.715 15 15 0 8.284-6.716 15-15 15-8.284 0-15-6.716-15-15C0 6.715 6.716 0 15 0z" clip-path="url(&quot;#ok6za&quot;)"/></g><g><g><text dominant-baseline="text-before-edge" style="line-height:25px" fill="#30383b" font-family="'themify','themify'" font-size="12" font-style="none" font-weight="400" transform="translate(9 9)"><tspan style="font-kerning:normal"></tspan></text></g></g></g></g></svg>
